<svg width="32" height="32" viewBox="0 0 32 32" fill="none" xmlns="http://www.w3.org/2000/svg">
<rect x="30" y="30" width="28" height="28" rx="14" transform="rotate(-180 30 30)" fill="white" stroke="#ED1C24" stroke-width="4"/>
<mask id="path-2-inside-1_879_9" fill="white">
<path d="M18.3047 19.1227L14.9891 15.8071L18.3047 12.4916V8.11328L10.6108 15.8071L18.3047 23.501V19.1227Z"/>
</mask>
<path d="M18.3047 19.1227L14.9891 15.8071L18.3047 12.4916V8.11328L10.6108 15.8071L18.3047 23.501V19.1227Z" fill="#ED1C24"/>
<path d="M18.3047 19.1227H22.3047V17.4658L21.1331 16.2943L18.3047 19.1227ZM14.9891 15.8071L12.1607 12.9787L9.33228 15.8071L12.1607 18.6356L14.9891 15.8071ZM18.3047 12.4916L21.1331 15.32L22.3047 14.1484V12.4916H18.3047ZM18.3047 8.11328L22.3047 8.11328V-1.54357L15.4763 5.28485L18.3047 8.11328ZM10.6108 15.8071L7.78241 12.9787L4.95399 15.8071L7.78241 18.6356L10.6108 15.8071ZM18.3047 23.501L15.4763 26.3294L22.3047 33.1578V23.501H18.3047ZM21.1331 16.2943L17.8176 12.9787L12.1607 18.6356L15.4763 21.9511L21.1331 16.2943ZM17.8176 18.6356L21.1331 15.32L15.4763 9.66315L12.1607 12.9787L17.8176 18.6356ZM22.3047 12.4916V8.11328H14.3047V12.4916H22.3047ZM15.4763 5.28485L7.78241 12.9787L13.4393 18.6356L21.1331 10.9417L15.4763 5.28485ZM7.78241 18.6356L15.4763 26.3294L21.1331 20.6725L13.4393 12.9787L7.78241 18.6356ZM22.3047 23.501V19.1227H14.3047V23.501H22.3047Z" fill="#ED1C24" mask="url(#path-2-inside-1_879_9)"/>
</svg>
