<svg width="34" height="35" viewBox="0 0 34 35" fill="none" xmlns="http://www.w3.org/2000/svg">
<path d="M2.53125 16.1997L14.8605 16.2304C15.1292 16.2304 15.3518 16.0156 15.3518 15.7472L15.3902 1.22071C15.3902 0.783536 14.8681 0.56878 14.5611 0.875569L11.759 3.66736C11.6668 3.75939 11.6131 3.88211 11.6131 4.01249V11.6976C11.6131 11.966 11.3981 12.1808 11.1295 12.1884L6.56166 12.2038" fill="#005E9E"/>
<path d="M31.1636 18.9145L18.8344 18.8838C18.5657 18.8838 18.3431 19.0985 18.3431 19.367L18.3047 33.8935C18.3047 34.3306 18.8267 34.5454 19.1338 34.2386L21.9359 31.4468C22.028 31.3548 22.0818 31.2321 22.0818 31.1017V23.4166C22.0818 23.1482 22.2967 22.9334 22.5654 22.9257L27.1332 22.9104" fill="#ED1C24"/>
<path d="M18.2065 3.2627L18.1758 15.5803C18.1758 15.8487 18.3907 16.0711 18.6594 16.0711L33.1996 16.1095C33.6372 16.1095 33.8521 15.588 33.5451 15.2812L30.7507 12.4817C30.6585 12.3897 30.5357 12.336 30.4052 12.336H22.7129C22.4442 12.336 22.2292 12.1212 22.2215 11.8528L22.2062 7.2893" fill="#005E9E"/>
<path d="M15.4828 31.8614L15.5135 19.5439C15.5135 19.2754 15.2986 19.053 15.0299 19.053L0.489724 19.0146C0.0521372 19.0146 -0.162818 19.5362 0.144261 19.843L2.93868 22.6424C3.0308 22.7345 3.15363 22.7882 3.28414 22.7882H10.9765C11.2452 22.7882 11.4601 23.0029 11.4678 23.2714L11.4831 27.8348" fill="#005E9E"/>
</svg>
