<svg width="15" height="15" viewBox="0 0 15 15" fill="none" xmlns="http://www.w3.org/2000/svg">
<path d="M7.61748 1C3.9686 1 1 3.96853 1 7.61735C1 11.2664 3.9686 14.2351 7.61748 14.2351C11.2663 14.2351 14.2348 11.2664 14.2348 7.61735C14.2348 3.96853 11.2663 1 7.61748 1ZM7.61748 13.2865C4.49166 13.2865 1.94862 10.7433 1.94862 7.61735C1.94862 4.4916 4.49166 1.94862 7.61748 1.94862C10.7432 1.94862 13.2862 4.4916 13.2862 7.61735C13.2862 10.7433 10.7432 13.2865 7.61748 13.2865Z" fill="black" stroke="black"/>
<path d="M11.0194 7.50645H7.90955V4.10712C7.90955 3.84518 7.69725 3.63281 7.43525 3.63281C7.1733 3.63281 6.96094 3.84518 6.96094 4.10712V7.98076C6.96094 8.2427 7.1733 8.45507 7.43525 8.45507H11.0194C11.2814 8.45507 11.4937 8.2427 11.4937 7.98076C11.4937 7.71882 11.2813 7.50645 11.0194 7.50645Z" fill="black" stroke="black"/>
</svg>
